HIERARCHY
ROOT hip
{
  OFFSET 0 0 0
  CHANNELS 6 Xposition Yposition Zposition Zrotation Yrotation Xrotation
  JOINT abdomen
  {
    OFFSET 0 20.6881 -0.73152
    CHANNELS 3 Zrotation Xrotation Yrotation
    JOINT chest
    {
      OFFSET 0 11.7043 -0.48768
      CHANNELS 3 Zrotation Xrotation Yrotation
      JOINT neck
      {
        OFFSET 0 22.1894 -2.19456
        CHANNELS 3 Zrotation Xrotation Yrotation
        JOINT head
        {
          OFFSET -0.24384 7.07133 1.2192
          CHANNELS 3 Zrotation Xrotation Yrotation
          JOINT leftEye
          {
            OFFSET 4.14528 8.04674 8.04672
            CHANNELS 3 Zrotation Xrotation Yrotation
            End Site
            {
              OFFSET 1 0 0
            }
          }
          JOINT rightEye
          {
            OFFSET -3.6576 8.04674 8.04672
            CHANNELS 3 Zrotation Xrotation Yrotation
            End Site
            {
              OFFSET 1 0 0
            }
          }
        }
      }
      JOINT rCollar
      {
        OFFSET -2.68224 19.2634 -4.8768
        CHANNELS 3 Zrotation Xrotation Yrotation
        JOINT rShldr
        {
          OFFSET -8.77824 -1.95073 1.46304
          CHANNELS 3 Zrotation Xrotation Yrotation
          JOINT rForeArm
          {
            OFFSET -28.1742 -1.7115 0.48768
            CHANNELS 3 Zrotation Xrotation Yrotation
            JOINT rHand
            {
              OFFSET -22.5879 0.773209 7.07136
              CHANNELS 3 Zrotation Xrotation Yrotation
              JOINT rThumb1
              {
                OFFSET -1.2192 -0.487915 3.41376
                CHANNELS 3 Zrotation Xrotation Yrotation
                JOINT rThumb2
                {
                  OFFSET -3.37035 -0.52449 3.41376
                  CHANNELS 3 Zrotation Xrotation Yrotation
                  End Site
                  {
                    OFFSET -1.78271 -1.18214 1.43049
                  }
                }
              }
              JOINT rIndex1
              {
                OFFSET -7.75947 0.938293 5.60832
                CHANNELS 3 Zrotation Xrotation Yrotation
                JOINT rIndex2
                {
                  OFFSET -2.54057 -0.884171 1.56538
                  CHANNELS 3 Zrotation Xrotation Yrotation
                  End Site
                  {
                    OFFSET -1.62519 -0.234802 1.16502
                  }
                }
              }
              JOINT rMid1
              {
                OFFSET -8.24714 1.18213 3.41376
                CHANNELS 3 Zrotation Xrotation Yrotation
                JOINT rMid2
                {
                  OFFSET -3.10165 -0.590103 1.0647
                  CHANNELS 3 Zrotation Xrotation Yrotation
                  End Site
                  {
                    OFFSET -2.48547 -0.328903 0.83742
                  }
                }
              }
              JOINT rRing1
              {
                OFFSET -8.82822 0.546677 1.51678
                CHANNELS 3 Zrotation Xrotation Yrotation
                JOINT rRing2
                {
                  OFFSET -2.60934 -0.819778 -0.0198488
                  CHANNELS 3 Zrotation Xrotation Yrotation
                  End Site
                  {
                    OFFSET -2.33842 -0.294052 0.168128
                  }
                }
              }
              JOINT rPinky1
              {
                OFFSET -8.27202 -0.0477905 -0.4584
                CHANNELS 3 Zrotation Xrotation Yrotation
                JOINT rPinky2
                {
                  OFFSET -1.82734 -0.647385 -0.700984
                  CHANNELS 3 Zrotation Xrotation Yrotation
                  End Site
                  {
                    OFFSET -1.69225 -0.51767 -0.607171
                  }
                }
              }
            }
          }
        }
      }
      JOINT lCollar
      {
        OFFSET 2.68224 19.2634 -4.8768
        CHANNELS 3 Zrotation Xrotation Yrotation
        JOINT lShldr
        {
          OFFSET 8.77824 -1.95073 1.46304
          CHANNELS 3 Zrotation Xrotation Yrotation
          JOINT lForeArm
          {
            OFFSET 28.1742 -1.7115 0.48768
            CHANNELS 3 Zrotation Xrotation Yrotation
            JOINT lHand
            {
              OFFSET 22.5879 0.773209 7.07136
              CHANNELS 3 Zrotation Xrotation Yrotation
              JOINT lThumb1
              {
                OFFSET 1.2192 -0.487915 3.41376
                CHANNELS 3 Zrotation Xrotation Yrotation
                JOINT lThumb2
                {
                  OFFSET 3.37035 -0.52449 3.41376
                  CHANNELS 3 Zrotation Xrotation Yrotation
                  End Site
                  {
                    OFFSET 1.78271 -1.18214 1.43049
                  }
                }
              }
              JOINT lIndex1
              {
                OFFSET 7.75947 0.938293 5.60832
                CHANNELS 3 Zrotation Xrotation Yrotation
                JOINT lIndex2
                {
                  OFFSET 2.54057 -0.884171 1.56538
                  CHANNELS 3 Zrotation Xrotation Yrotation
                  End Site
                  {
                    OFFSET 1.62519 -0.234802 1.16502
                  }
                }
              }
              JOINT lMid1
              {
                OFFSET 8.24714 1.18213 3.41376
                CHANNELS 3 Zrotation Xrotation Yrotation
                JOINT lMid2
                {
                  OFFSET 3.10165 -0.590103 1.0647
                  CHANNELS 3 Zrotation Xrotation Yrotation
                  End Site
                  {
                    OFFSET 2.48547 -0.328903 0.83742
                  }
                }
              }
              JOINT lRing1
              {
                OFFSET 8.82822 0.546677 1.51678
                CHANNELS 3 Zrotation Xrotation Yrotation
                JOINT lRing2
                {
                  OFFSET 2.60934 -0.819778 -0.0198488
                  CHANNELS 3 Zrotation Xrotation Yrotation
                  End Site
                  {
                    OFFSET 2.33842 -0.294052 0.168128
                  }
                }
              }
              JOINT lPinky1
              {
                OFFSET 8.27202 -0.0477905 -0.4584
                CHANNELS 3 Zrotation Xrotation Yrotation
                JOINT lPinky2
                {
                  OFFSET 1.82734 -0.647385 -0.700984
                  CHANNELS 3 Zrotation Xrotation Yrotation
                  End Site
                  {
                    OFFSET 1.69225 -0.51767 -0.607171
                  }
                }
              }
            }
          }
        }
      }
    }
  }
  JOINT rButtock
  {
    OFFSET -8.77824 4.35084 1.2192
    CHANNELS 3 Zrotation Xrotation Yrotation
    JOINT rThigh
    {
      OFFSET 0 -1.70687 -2.19456
      CHANNELS 3 Zrotation Xrotation Yrotation
      JOINT rShin
      {
        OFFSET 0 -36.8199 0.73152
        CHANNELS 3 Zrotation Xrotation Yrotation
        JOINT rFoot
        {
          OFFSET 0.73152 -45.1104 -5.12064
          CHANNELS 3 Zrotation Xrotation Yrotation
          End Site
          {
            OFFSET -1.1221 -3.69964 12.103
          }
        }
      }
    }
  }
  JOINT lButtock
  {
    OFFSET 8.77824 4.35084 1.2192
    CHANNELS 3 Zrotation Xrotation Yrotation
    JOINT lThigh
    {
      OFFSET 0 -1.70687 -2.19456
      CHANNELS 3 Zrotation Xrotation Yrotation
      JOINT lShin
      {
        OFFSET 0 -36.8199 0.73152
        CHANNELS 3 Zrotation Xrotation Yrotation
        JOINT lFoot
        {
          OFFSET -0.73152 -45.1104 -5.12064
          CHANNELS 3 Zrotation Xrotation Yrotation
          End Site
          {
            OFFSET 1.1221 -3.69964 12.103
          }
        }
      }
    }
  }
}
MOTION
Frames:	6
Frame Time:	0.00833333
1.69173 90.7594 12.2471 -6.7477 -1.1783 3.5488 1.56015 16.0638 4.4942 -3.86936 -4.00772 0.827322 -0.915278 7.25601 -0.932654 3.58285 -39.9587 -0.485571 -0.0 0.0 0.0 -0.0 0.0 0.0 -1.29616e-13 1.3487e-13 -6.9313e-14 69.7307 48.2584 2.26016 -28.3071 -38.3316 80.9657 -0.0216013 -4.30076 -0.605503 -5.41393e-10 -1.44861e-08 2.45383e-09 -9.45143e-10 -2.50355e-08 4.24295e-09 -5.41387e-10 -1.44861e-08 2.45382e-09 7.73091 5.47488 0.417314 -5.41395e-10 -1.44861e-08 2.45383e-09 2.90554 0.965183 0.102902 -5.41388e-10 -1.44861e-08 2.45383e-09 10.2786 0.731801 0.0259123 -5.41397e-10 -1.44861e-08 2.45384e-09 2.22167 -0.733487 -0.20892 -1.29761e-13 1.3488e-13 -6.95572e-14 -90.6606 33.7542 22.849 28.0951 -39.8805 -83.7072 1.0614 -27.9157 4.2701 -7.83315e-10 -2.28203e-09 -1.64064e-09 -1.31944e-09 -3.79212e-09 -2.84873e-09 -7.8332e-10 -2.28203e-09 -1.64064e-09 -7.73091 5.47488 -0.417314 -7.83314e-10 -2.28202e-09 -1.64064e-09 -2.90554 0.965183 -0.102902 -7.83324e-10 -2.28203e-09 -1.64064e-09 -10.2786 0.731801 -0.0259123 -7.83313e-10 -2.28203e-09 -1.64065e-09 -2.22167 -0.733487 0.20892 -2.03217e-16 0.0 -3.88251e-19 10.8373 4.71831 5.64325 -0.839387 51.9723 0.396338 5.16317 46.099 -8.41878 2.03217e-16 0.0 3.88251e-19 2.99861 -36.5112 -8.42063 0.225399 23.697 1.52151 -1.08552 13.9644 6.60263
1.90664 90.154 15.1224 -6.0192 -1.1731 2.9315 0.288401 16.6728 4.28022 -3.70755 -4.00795 0.687707 -1.04673 7.45821 -0.936524 4.021 -40.0833 -0.312771 -0.0 0.0 0.0 -0.0 0.0 0.0 -1.10358e-13 1.68563e-13 -8.61235e-14 71.302 47.6235 0.411578 -28.3787 -37.3909 79.3614 -0.028854 -4.84309 -0.682294 -6.3613e-10 -1.64641e-08 2.81438e-09 -1.10968e-09 -2.84454e-08 4.86505e-09 -6.36123e-10 -1.64641e-08 2.81437e-09 7.73091 5.47488 0.417314 -6.36131e-10 -1.64641e-08 2.81438e-09 2.90554 0.965183 0.102902 -6.36125e-10 -1.64641e-08 2.81438e-09 10.2786 0.731801 0.0259123 -6.36134e-10 -1.64641e-08 2.81439e-09 2.22167 -0.733487 -0.20892 -1.10499e-13 1.68575e-13 -8.63719e-14 -89.1237 34.4139 20.9282 28.1014 -39.8416 -83.6384 1.10719 -28.4452 4.36636 -9.01489e-10 -2.46461e-09 -1.98154e-09 -1.51603e-09 -4.07449e-09 -3.44013e-09 -9.01496e-10 -2.46461e-09 -1.98154e-09 -7.73091 5.47488 -0.417314 -9.01488e-10 -2.4646e-09 -1.98154e-09 -2.90554 0.965183 -0.102902 -9.015e-10 -2.46462e-09 -1.98154e-09 -10.2786 0.731801 -0.0259123 -9.01487e-10 -2.46461e-09 -1.98156e-09 -2.22167 -0.733487 0.20892 -2.03217e-16 0.0 -3.88251e-19 9.85809 2.54183 4.62599 -1.09225 57.0871 0.632657 5.31762 46.3444 -8.64541 2.03217e-16 0.0 3.88251e-19 1.79217 -35.4817 -6.95591 0.236298 24.439 1.62373 -0.968355 13.3869 6.00069
2.19853 89.4329 18.0275 -5.0262 -0.8303 2.3486 -1.04792 17.1335 4.06305 -3.49741 -4.01224 0.542583 -1.08821 7.6759 -0.918738 4.24506 -40.045 -0.193208 -0.0 0.0 0.0 -0.0 0.0 0.0 -7.51937e-14 1.45354e-13 -7.63461e-14 72.8865 46.9268 -1.49756 -28.4252 -36.4612 77.7619 -0.0340082 -5.19768 -0.732574 -6.16841e-10 -1.44138e-08 2.5546e-09 -1.0751e-09 -2.49003e-08 4.4156e-09 -6.16833e-10 -1.44138e-08 2.55459e-09 7.73091 5.47488 0.417314 -6.16841e-10 -1.44138e-08 2.5546e-09 2.90554 0.965183 0.102902 -6.16833e-10 -1.44138e-08 2.5546e-09 10.2786 0.731801 0.0259123 -6.16844e-10 -1.44138e-08 2.5546e-09 2.22167 -0.733487 -0.20892 -7.53224e-14 1.45368e-13 -7.65892e-14 -87.5125 35.1222 18.931 28.0991 -39.8503 -83.6575 1.15184 -28.9543 4.45955 -8.16462e-10 -3.09885e-09 -1.83484e-09 -1.37173e-09 -5.16072e-09 -3.18558e-09 -8.16469e-10 -3.09886e-09 -1.83483e-09 -7.73091 5.47488 -0.417314 -8.1646e-10 -3.09885e-09 -1.83483e-09 -2.90554 0.965183 -0.102902 -8.16473e-10 -3.09886e-09 -1.83483e-09 -10.2786 0.731801 -0.0259123 -8.16459e-10 -3.09885e-09 -1.83485e-09 -2.22167 -0.733487 0.20892 -2.03217e-16 0.0 -3.88251e-19 8.54225 0.37974 3.50139 -1.43367 62.1244 0.963966 5.40764 46.22 -8.8597 2.03217e-16 0.0 3.88251e-19 0.509573 -34.5496 -5.6179 0.263004 25.8293 1.6739 -0.609431 11.9326 4.41887
2.48091 88.6306 20.9627 -4.0505 -0.6484 1.9119 -2.46363 17.525 3.83007 -3.24402 -4.04308 0.387679 -1.07706 7.92849 -0.885604 4.33573 -39.8995 -0.103062 -0.0 0.0 0.0 -0.0 0.0 0.0 -2.15413e-14 8.62639e-14 -4.81276e-14 74.489 46.139 -3.46935 -28.4391 -35.503 76.1504 -0.0376431 -5.4488 -0.768204 -5.20733e-10 -9.76421e-09 1.90635e-09 -9.06355e-10 -1.68665e-08 3.29497e-09 -5.20724e-10 -9.76421e-09 1.90634e-09 7.73091 5.47488 0.417314 -5.20731e-10 -9.76422e-09 1.90634e-09 2.90554 0.965183 0.102902 -5.20721e-10 -9.76421e-09 1.90634e-09 10.2786 0.731801 0.0259123 -5.20733e-10 -9.76422e-09 1.90635e-09 2.22167 -0.733487 -0.20892 -2.16461e-14 8.62802e-14 -4.83575e-14 -85.7912 35.8973 16.8281 28.0904 -39.8949 -83.7423 1.1984 -29.4728 4.55536 -6.06067e-10 -4.03108e-09 -1.3917e-09 -1.0169e-09 -6.77456e-09 -2.41684e-09 -6.06074e-10 -4.03108e-09 -1.3917e-09 -7.73091 5.47488 -0.417314 -6.06065e-10 -4.03107e-09 -1.3917e-09 -2.90554 0.965183 -0.102902 -6.06077e-10 -4.03108e-09 -1.3917e-09 -10.2786 0.731801 -0.0259123 -6.06063e-10 -4.03107e-09 -1.39171e-09 -2.22167 -0.733487 0.20892 -2.03217e-16 0.0 -3.88251e-19 6.90705 -1.80205 2.26647 -1.94548 67.1629 1.47073 5.41824 45.8053 -9.02313 2.03217e-16 0.0 3.88251e-19 -0.888468 -33.6698 -4.27367 0.299455 27.8128 1.68419 -0.197542 9.87323 2.06573
2.71878 87.8551 23.8356 -3.4 -0.0602 1.4615 -3.82171 17.8957 3.55217 -2.98875 -4.09343 0.22213 -1.06122 8.17798 -0.85136 4.40147 -39.7653 -0.0202007 -0.0 0.0 0.0 -0.0 0.0 0.0 2.96384e-14 1.90241e-14 -1.89416e-14 76.0144 45.2298 -5.37573 -28.4162 -34.5387 74.5666 -0.038586 -5.53596 -0.780551 -3.73232e-10 -4.58297e-09 1.11833e-09 -6.48378e-10 -7.9155e-09 1.93291e-09 -3.73223e-10 -4.58297e-09 1.11832e-09 7.73091 5.47488 0.417314 -3.7323e-10 -4.58297e-09 1.11832e-09 2.90554 0.965183 0.102902 -3.73217e-10 -4.58298e-09 1.11832e-09 10.2786 0.731801 0.0259123 -3.7323e-10 -4.58298e-09 1.11832e-09 2.22167 -0.733487 -0.20892 2.95578e-14 1.90422e-14 -1.91552e-14 -83.93 36.6815 14.4905 28.0748 -39.9865 -83.9066 1.23961 -29.9178 4.63852 -3.34381e-10 -3.57773e-09 -8.16489e-10 -5.59134e-10 -6.03151e-09 -1.41857e-09 -3.34389e-10 -3.57774e-09 -8.16478e-10 -7.73091 5.47488 -0.417314 -3.34379e-10 -3.57772e-09 -8.16483e-10 -2.90554 0.965183 -0.102902 -3.3439e-10 -3.57772e-09 -8.16482e-10 -10.2786 0.731801 -0.0259123 -3.34376e-10 -3.57772e-09 -8.1649e-10 -2.22167 -0.733487 0.20892 -2.03217e-16 0.0 -3.88251e-19 5.14641 -4.11756 0.979186 -2.74565 72.1006 2.26546 5.39315 45.2979 -9.16173 2.03217e-16 0.0 3.88251e-19 -2.32102 -32.8428 -3.14939 0.339328 30.1133 1.6634 0.0475263 7.43585 -0.258921
2.966 87.0769 26.7592 -2.7547 0.7569 0.9232 -4.98347 18.2937 3.19985 -2.77296 -4.15626 0.0450779 -1.0883 8.38633 -0.830279 4.55149 -39.7605 0.077993 -0.0 0.0 0.0 -0.0 0.0 0.0 5.73845e-14 -2.86347e-14 -6.26172e-15 77.3739 44.1773 -7.09413 -28.3587 -33.5961 73.04 -0.0358801 -5.39868 -0.761011 -1.99767e-10 -9.37789e-10 4.39241e-10 -3.46117e-10 -1.6189e-09 7.59176e-10 -1.99758e-10 -9.37793e-10 4.39231e-10 7.73091 5.47488 0.417314 -1.99765e-10 -9.37791e-10 4.39231e-10 2.90554 0.965183 0.102902 -1.99751e-10 -9.37795e-10 4.39233e-10 10.2786 0.731801 0.0259123 -1.99763e-10 -9.37797e-10 4.39235e-10 2.22167 -0.733487 -0.20892 5.73179e-14 -2.86163e-14 -6.4605e-15 -81.9034 37.4044 11.7894 28.0511 -40.1359 -84.1655 1.26722 -30.2063 4.69305 -6.54821e-11 -5.52609e-11 -2.73537e-10 -1.06042e-10 -4.70818e-11 -4.75409e-10 -6.54892e-11 -5.52729e-11 -2.73525e-10 -7.73091 5.47488 -0.417314 -6.54797e-11 -5.52589e-11 -2.73531e-10 -2.90554 0.965183 -0.102902 -6.54895e-11 -5.52574e-11 -2.73529e-10 -10.2786 0.731801 -0.0259123 -6.54759e-11 -5.52602e-11 -2.73534e-10 -2.22167 -0.733487 0.20892 -2.03217e-16 0.0 -3.88251e-19 3.45282 -6.68008 -0.303702 -4.08741 76.8345 3.59775 5.37844 44.8948 -9.30244 2.03217e-16 0.0 3.88251e-19 -3.6923 -32.0767 -2.46364 0.376134 32.4545 1.61918 0.0652352 4.87473 -1.78846
